<?xml version="1.0" standalone="no"?>
<!DOCTYPE svg PUBLIC "-//W3C//DTD SVG 20010904//EN"
 "http://www.w3.org/TR/2001/REC-SVG-20010904/DTD/svg10.dtd">
<svg version="1.0" xmlns="http://www.w3.org/2000/svg"
 width="157.000000pt" height="148.000000pt" viewBox="0 0 157.000000 148.000000"
 preserveAspectRatio="xMidYMid meet">

<g transform="translate(0.000000,148.000000) scale(0.100000,-0.100000)"
fill="#000000" stroke="none">
<path d="M550 1337 c-97 -27 -171 -98 -229 -221 -69 -143 -61 -277 19 -350 50
-45 77 -56 124 -51 86 8 120 66 114 194 -2 47 -10 95 -17 106 -9 14 -11 15 -7
3 3 -10 8 -51 12 -93 11 -126 -29 -195 -116 -195 -57 0 -110 40 -145 110 -27
53 -16 171 25 257 73 157 170 233 297 233 75 0 119 -19 193 -85 64 -57 112
-81 175 -90 77 -10 131 -33 164 -71 71 -81 61 -195 -24 -253 -67 -46 -216 -72
-291 -52 -41 11 -122 81 -116 101 1 6 -2 10 -8 10 -42 0 49 -101 108 -121 34
-11 34 -11 10 -23 -12 -6 -29 -24 -36 -39 -12 -24 -19 -27 -63 -27 -38 0 -49
3 -49 16 0 25 -65 84 -91 84 -21 0 -20 -2 9 -17 66 -32 75 -104 28 -232 -15
-41 -26 -86 -24 -101 3 -19 -2 -31 -14 -39 -15 -9 -17 -21 -11 -89 l6 -79 -59
1 c-45 1 -69 -5 -97 -22 -21 -12 -43 -19 -49 -16 -7 4 -8 2 -4 -4 12 -20 107
-42 180 -42 39 0 125 -7 191 -15 65 -8 152 -15 192 -15 66 0 74 2 89 25 12 18
25 25 49 25 46 0 75 38 75 97 0 99 -58 248 -105 273 -20 11 -28 10 -50 -4 -14
-9 -25 -21 -25 -26 0 -5 -16 2 -36 15 -20 14 -42 25 -49 25 -18 0 -88 122 -74
131 8 5 8 8 0 13 -37 23 13 51 134 75 105 20 162 40 207 72 16 12 29 16 33 9
7 -12 55 -13 72 -2 6 4 17 20 23 36 13 35 -7 72 -44 82 -19 4 -25 14 -29 46
-6 46 -48 104 -96 132 -18 10 -67 25 -109 33 -80 15 -189 73 -177 94 4 5 11 7
16 4 5 -4 9 -1 9 5 0 8 -9 10 -24 6 -14 -3 -28 -2 -31 4 -3 5 -26 21 -50 35
-52 31 -140 40 -205 22z m719 -411 c16 -19 10 -68 -7 -74 -11 -3 -11 0 -1 16
10 17 10 24 -4 46 -18 27 -8 36 12 12z m-436 -327 l37 -61 -20 -25 c-29 -37
-39 -85 -33 -163 4 -63 3 -70 -14 -70 -30 0 -38 13 -39 65 -2 75 -16 168 -24
155 -4 -6 0 -49 8 -95 14 -80 14 -86 -3 -105 -22 -25 -42 -26 -48 -3 -3 13 -5
12 -6 -5 -1 -32 -46 -28 -45 4 0 14 -4 20 -13 17 -18 -7 -43 15 -43 38 0 10 9
24 20 31 15 9 20 24 20 52 0 22 14 82 32 133 l31 93 52 0 52 0 36 -61z m107
-96 c25 -22 25 -33 1 -33 -11 0 -22 -4 -25 -8 -2 -4 10 -6 28 -4 27 3 34 -1
44 -22 11 -24 10 -26 -16 -27 l-27 -1 29 -7 c40 -8 57 -61 57 -171 -1 -122 0
-122 -236 -95 -71 8 -136 15 -142 15 -7 0 -13 12 -13 26 0 18 -6 28 -21 31
-17 5 -20 12 -17 46 3 44 22 60 31 26 6 -22 1 -22 117 -7 8 1 31 -1 51 -5 l36
-7 -1 103 c-1 82 2 108 17 130 20 32 57 36 87 10z m124 -2 c10 -11 15 -25 11
-30 -3 -6 -2 -11 4 -11 6 0 15 -9 21 -21 9 -17 8 -23 -7 -34 -17 -13 -17 -14
4 -9 19 5 23 0 34 -38 6 -23 12 -66 13 -94 1 -61 -21 -94 -64 -94 -27 0 -27 1
-32 83 -4 56 -14 103 -32 148 -29 73 -31 90 -14 107 18 18 42 15 62 -7z m-512
-321 c-5 -34 -11 -35 -87 -16 l-50 13 35 16 c19 9 51 16 71 17 34 0 35 -1 31
-30z"/>
<path d="M410 1084 c0 -22 -2 -25 -15 -14 -13 11 -18 6 -34 -31 -59 -135 -21
-259 79 -259 119 0 132 186 22 303 -33 34 -52 35 -52 1z"/>
<path d="M829 1098 c-7 -15 -6 -59 2 -63 5 -4 9 10 9 29 0 29 -6 46 -11 34z"/>
<path d="M666 12 c-3 -5 1 -9 9 -9 8 0 15 4 15 9 0 4 -4 8 -9 8 -6 0 -12 -4
-15 -8z"/>
</g>
</svg>
